<?xml version="1.0" encoding="utf-8"?>
<!-- Generator: Adobe Illustrator 28.0.0, SVG Export Plug-In . SVG Version: 6.00 Build 0)  -->
<svg version="1.1" id="Layer_1" xmlns="http://www.w3.org/2000/svg" xmlns:xlink="http://www.w3.org/1999/xlink" x="0px" y="0px"
	 viewBox="0 0 333.52 173.01" style="enable-background:new 0 0 333.52 173.01;" xml:space="preserve">
<style type="text/css">
	.st0{fill:#5A5377;}
	.st1{fill:#DBC554;}
	.st2{fill:#A9A8A9;}
	.st3{fill:#231F20;}
</style>
<g>
	<g>
		<path class="st0" d="M142.09,81.62c-0.38,0.66-0.8,1.13-1.27,1.41c-0.47,0.28-1.06,0.42-1.76,0.42c-0.8,0-1.67-0.25-2.61-0.74
			c-0.94-0.49-2.04-1.04-3.31-1.66c-1.27-0.61-2.76-1.16-4.48-1.66c-1.71-0.49-3.73-0.74-6.03-0.74c-1.88,0-3.58,0.22-5.11,0.67
			c-1.53,0.45-2.82,1.08-3.88,1.9c-1.06,0.82-1.87,1.79-2.43,2.89c-0.56,1.11-0.84,2.29-0.84,3.56c0,1.69,0.51,3.1,1.55,4.23
			c1.03,1.13,2.39,2.11,4.09,2.93c1.69,0.82,3.62,1.56,5.78,2.22c2.16,0.66,4.37,1.37,6.63,2.12c2.26,0.75,4.47,1.62,6.63,2.61
			c2.16,0.99,4.09,2.2,5.78,3.63c1.69,1.44,3.06,3.17,4.09,5.22c1.03,2.04,1.55,4.52,1.55,7.44c0,3.38-0.61,6.51-1.83,9.38
			c-1.22,2.87-3.01,5.36-5.36,7.48c-2.35,2.12-5.28,3.76-8.78,4.94c-3.5,1.18-7.51,1.77-12.02,1.77c-2.49,0-4.9-0.22-7.23-0.67
			c-2.33-0.44-4.54-1.05-6.63-1.83c-2.09-0.77-4.04-1.7-5.85-2.79c-1.81-1.07-3.42-2.25-4.83-3.52l3.53-5.79
			c0.42-0.7,0.95-1.26,1.59-1.65c0.63-0.4,1.42-0.6,2.36-0.6c0.99,0,1.97,0.32,2.93,0.95c0.96,0.63,2.09,1.33,3.39,2.08
			c1.29,0.75,2.85,1.44,4.69,2.08c1.84,0.63,4.12,0.95,6.84,0.95c2.26,0,4.21-0.27,5.85-0.81c1.65-0.54,3.01-1.28,4.09-2.22
			c1.08-0.94,1.88-2.01,2.4-3.21c0.52-1.2,0.77-2.48,0.77-3.84c0-1.83-0.52-3.34-1.55-4.51c-1.03-1.17-2.41-2.19-4.12-3.03
			c-1.71-0.85-3.67-1.6-5.85-2.26c-2.19-0.66-4.41-1.36-6.67-2.11c-2.26-0.75-4.48-1.62-6.66-2.61c-2.19-0.99-4.13-2.25-5.85-3.78
			c-1.72-1.53-3.09-3.38-4.13-5.57c-1.03-2.19-1.55-4.85-1.55-8.01c0-2.87,0.58-5.6,1.73-8.18c1.15-2.58,2.84-4.86,5.08-6.84
			c2.23-1.97,4.98-3.54,8.25-4.69c3.27-1.15,7.04-1.73,11.32-1.73c4.84,0,9.24,0.77,13.19,2.33c3.95,1.55,7.27,3.67,9.94,6.35
			L142.09,81.62z"/>
		<path class="st0" d="M149,68.58h11.99c1.18,0,2.15,0.3,2.93,0.88c0.77,0.59,1.28,1.28,1.51,2.08l11.99,41.89
			c0.47,1.92,0.88,3.79,1.23,5.61c0.35,1.81,0.67,3.61,0.95,5.39c0.47-1.79,0.96-3.58,1.45-5.39c0.5-1.81,1.05-3.68,1.66-5.61
			l13.5-42.1c0.24-0.85,0.72-1.54,1.45-2.08c0.73-0.54,1.61-0.81,2.64-0.81h6.63c1.08,0,2,0.27,2.75,0.81
			c0.75,0.54,1.25,1.24,1.48,2.08l13.12,42.1c0.51,1.92,1.03,3.81,1.55,5.63c0.51,1.84,0.99,3.65,1.41,5.43
			c0.56-3.57,1.36-7.26,2.4-11.07l12.2-41.89c0.29-0.85,0.8-1.55,1.55-2.11c0.75-0.57,1.67-0.85,2.75-0.85h11.42l-23.06,71.93
			h-12.06c-1.41,0-2.4-0.92-2.96-2.75l-14.31-44.78c-0.38-1.27-0.72-2.53-1.03-3.77c-0.3-1.24-0.57-2.5-0.81-3.77
			c-0.52,2.54-1.15,5.08-1.9,7.61l-14.55,44.71c-0.52,1.84-1.63,2.75-3.33,2.75h-11.5L149,68.58z"/>
		<path class="st0" d="M293.32,67.45c4.42,0,8.51,0.72,12.27,2.15c3.76,1.43,7.01,3.53,9.73,6.31c2.73,2.78,4.86,6.17,6.38,10.19
			c1.53,4.02,2.29,8.59,2.29,13.71c0,2.35-0.26,3.93-0.77,4.72c-0.51,0.8-1.46,1.2-2.82,1.2h-46.19c0.19,4.09,0.82,7.62,1.9,10.61
			c1.08,2.99,2.53,5.47,4.34,7.44c1.81,1.97,3.97,3.44,6.49,4.41c2.52,0.96,5.33,1.44,8.43,1.44c2.96,0,5.52-0.34,7.69-1.02
			c2.16-0.68,4.04-1.43,5.64-2.26c1.6-0.82,2.96-1.57,4.09-2.26c1.13-0.68,2.16-1.02,3.1-1.02c1.22,0,2.16,0.47,2.82,1.41l4.3,5.57
			c-1.79,2.11-3.81,3.9-6.06,5.36c-2.26,1.46-4.66,2.65-7.2,3.56c-2.54,0.92-5.15,1.57-7.83,1.97c-2.68,0.4-5.29,0.6-7.83,0.6
			c-4.98,0-9.6-0.84-13.85-2.5c-4.26-1.66-7.94-4.13-11.07-7.37c-3.13-3.25-5.57-7.26-7.33-12.06c-1.76-4.79-2.64-10.32-2.64-16.57
			c0-4.98,0.78-9.64,2.36-13.96c1.58-4.33,3.83-8.09,6.77-11.28c2.94-3.2,6.51-5.72,10.72-7.58C283.25,68.38,288,67.45,293.32,67.45
			z M293.6,78.45c-5.5,0-9.83,1.57-12.98,4.72c-3.15,3.15-5.15,7.57-6,13.25h35.76c0-2.53-0.37-4.9-1.1-7.08
			c-0.73-2.19-1.8-4.09-3.21-5.71c-1.41-1.63-3.16-2.89-5.25-3.81C298.74,78.91,296.33,78.45,293.6,78.45z"/>
	</g>
	<path class="st1" d="M26,20.25c0.79,1.4,1.66,2.77,2.36,4.21c1.54,3.13,1.77,6.39,0.66,9.71c-0.25,0.74-0.54,1.45-0.86,2.14
		l11.03,5.86c3.94-5.58,10.42-9.26,17.78-9.29c7.05-0.02,13.32,3.3,17.33,8.46l11.1-6.16c-0.18-0.43-0.37-0.86-0.52-1.32
		c-0.86-2.54-0.91-5.11-0.12-7.69c0.56-1.84,1.5-3.51,2.48-5.15c0.77-1.29,1.53-2.59,2.23-3.92c0.5-0.93,0.77-1.96,0.72-3.04
		c-0.07-1.41-0.72-2.57-1.68-3.53c-2.25-2.29-5-3.81-7.97-4.93c-0.73-0.28-1.51-0.4-2.28-0.59c-0.43,0-0.88,0-1.31,0.01
		c-0.33,0.08-0.67,0.16-1,0.27c-1.11,0.38-1.97,1.12-2.61,2.07c-0.71,1.05-1.35,2.15-1.96,3.26c-0.88,1.59-1.72,3.2-2.82,4.66
		c-2.2,2.92-5.14,4.57-8.74,5.09c-2.54,0.36-5.05,0.3-7.54-0.32c-3.19-0.79-5.69-2.61-7.49-5.32c-1.02-1.54-1.87-3.19-2.83-4.78
		c-0.58-0.96-1.16-1.93-1.85-2.82c-0.82-1.07-1.92-1.76-3.3-1.92c-0.03-0.01-0.07-0.03-0.1-0.05c-0.36,0-0.73,0-1.09,0.01
		c-0.33,0.06-0.66,0.12-0.99,0.19c-1.85,0.41-3.53,1.25-5.15,2.2c-1.57,0.91-3.06,1.92-4.29,3.26c-1.61,1.75-2.09,3.74-1.09,5.93
		C24.65,17.95,25.35,19.09,26,20.25z"/>
	<path class="st0" d="M111.01,49.19c-0.66-2.15-2.01-3.59-4.3-3.92c-1.1-0.16-2.22-0.18-3.33-0.18c-2.2,0-4.41,0.19-6.61-0.12
		c-2.68-0.38-5.05-1.43-7.02-3.3c-0.43-0.41-0.83-0.84-1.21-1.29l-11.23,6.23c1.01,2.49,1.57,5.2,1.57,8.05
		c0.02,10.65-7.54,19.51-17.59,21.5v13.16c3.15,0.7,5.75,2.36,7.75,5.09c1.18,1.62,2.06,3.42,3.07,5.15
		c0.58,0.99,1.21,1.98,1.92,2.9c0.84,1.08,1.98,1.73,3.38,1.85c0.91,0.08,1.79-0.04,2.65-0.32c2.85-0.89,5.38-2.38,7.68-4.25
		c0.56-0.46,1.06-0.99,1.52-1.56c1.42-1.75,1.54-3.69,0.6-5.69c-0.54-1.14-1.21-2.21-1.83-3.3c-0.77-1.37-1.62-2.7-2.32-4.11
		c-1.52-3.09-1.79-6.31-0.73-9.61c0.81-2.52,2.09-4.79,3.81-6.81c1.79-2.1,4.01-3.53,6.7-4.17c2.07-0.5,4.18-0.49,6.29-0.45
		c1.44,0.03,2.89,0.03,4.32-0.07c1.46-0.1,2.79-0.61,3.76-1.8c0.6-0.73,0.98-1.58,1.23-2.48c0.57-2.09,0.62-4.22,0.53-6.36
		C111.59,51.94,111.43,50.54,111.01,49.19z"/>
	<path class="st2" d="M55.22,76.48C44.04,75.56,35.2,66.23,35.17,54.81c-0.01-2.54,0.44-4.97,1.23-7.24l-11.66-6.19
		c-0.02,0.02-0.04,0.05-0.05,0.07c-1.52,1.59-3.33,2.73-5.45,3.36c-1.65,0.49-3.35,0.65-5.06,0.65c-1.78,0.01-3.57-0.06-5.34-0.03
		c-0.73,0.01-1.48,0.14-2.19,0.33c-1.95,0.51-3.03,1.89-3.6,3.75c-0.57,1.86-0.66,3.78-0.64,5.72c0.02,1.75,0.15,3.49,0.69,5.17
		c0.67,2.12,2.04,3.51,4.29,3.84c1.04,0.15,2.1,0.17,3.15,0.17c2.28-0.01,4.55-0.21,6.83,0.12c2.45,0.36,4.67,1.27,6.54,2.92
		c2.46,2.17,4.12,4.87,5.21,7.94c0.98,2.75,1.02,5.52,0.09,8.3c-0.55,1.63-1.37,3.12-2.25,4.59c-0.79,1.33-1.58,2.67-2.32,4.03
		c-0.46,0.84-0.73,1.77-0.76,2.74c-0.05,1.55,0.63,2.79,1.64,3.88c1.24,1.34,2.75,2.33,4.32,3.23c1.73,0.99,3.51,1.88,5.5,2.22
		c1.95,0.34,3.64-0.16,4.93-1.7c0.57-0.67,1.06-1.41,1.51-2.17c1.02-1.73,1.92-3.51,2.97-5.21c1.82-2.92,4.35-4.95,7.73-5.82
		c0.91-0.23,1.83-0.38,2.74-0.47V76.48z"/>
</g>
<g>
	<path class="st3" d="M101.86,154.96c-0.07,0.13-0.15,0.22-0.23,0.27c-0.08,0.06-0.18,0.09-0.3,0.09c-0.13,0-0.26-0.04-0.41-0.14
		c-0.15-0.09-0.32-0.2-0.53-0.31c-0.21-0.11-0.45-0.22-0.72-0.31c-0.27-0.09-0.6-0.14-0.97-0.14c-0.34,0-0.64,0.04-0.89,0.12
		c-0.25,0.08-0.47,0.19-0.64,0.34c-0.17,0.15-0.3,0.32-0.38,0.52c-0.08,0.2-0.13,0.43-0.13,0.67c0,0.3,0.09,0.56,0.26,0.77
		c0.17,0.21,0.4,0.38,0.68,0.53c0.28,0.14,0.61,0.28,0.97,0.39c0.36,0.11,0.73,0.24,1.11,0.37c0.38,0.13,0.75,0.28,1.12,0.45
		c0.36,0.17,0.68,0.39,0.97,0.65c0.28,0.26,0.51,0.58,0.68,0.96c0.17,0.38,0.26,0.85,0.26,1.39c0,0.59-0.1,1.14-0.3,1.66
		c-0.2,0.52-0.5,0.97-0.89,1.35c-0.39,0.38-0.87,0.69-1.43,0.91c-0.56,0.22-1.2,0.33-1.93,0.33c-0.41,0-0.83-0.04-1.23-0.12
		c-0.4-0.08-0.79-0.2-1.16-0.35c-0.37-0.15-0.72-0.33-1.05-0.54c-0.33-0.21-0.61-0.45-0.87-0.7l0.72-1.17
		c0.06-0.08,0.14-0.15,0.23-0.21c0.1-0.06,0.2-0.09,0.31-0.09c0.15,0,0.31,0.06,0.49,0.18c0.18,0.13,0.38,0.26,0.63,0.41
		c0.24,0.16,0.52,0.29,0.85,0.41c0.32,0.13,0.71,0.19,1.16,0.19c0.69,0,1.23-0.17,1.61-0.5c0.38-0.33,0.57-0.8,0.57-1.42
		c0-0.34-0.09-0.62-0.26-0.84c-0.17-0.22-0.4-0.4-0.68-0.55c-0.28-0.15-0.61-0.27-0.97-0.37c-0.36-0.1-0.73-0.21-1.1-0.34
		c-0.37-0.12-0.74-0.27-1.1-0.43c-0.36-0.17-0.68-0.39-0.97-0.66c-0.29-0.27-0.51-0.61-0.68-1.02c-0.17-0.41-0.26-0.91-0.26-1.5
		c0-0.48,0.1-0.94,0.29-1.4c0.19-0.45,0.47-0.85,0.83-1.2c0.36-0.35,0.81-0.63,1.34-0.84c0.53-0.21,1.14-0.32,1.83-0.32
		c0.77,0,1.48,0.12,2.14,0.36c0.65,0.24,1.2,0.58,1.67,1.01L101.86,154.96z"/>
	<path class="st3" d="M108.58,156.23c0.69,0,1.31,0.11,1.88,0.33c0.56,0.23,1.05,0.54,1.45,0.95c0.4,0.41,0.71,0.91,0.93,1.5
		c0.22,0.59,0.33,1.25,0.33,1.98c0,0.74-0.11,1.4-0.33,1.99c-0.22,0.59-0.53,1.09-0.93,1.51c-0.4,0.42-0.88,0.74-1.45,0.96
		c-0.56,0.22-1.19,0.33-1.88,0.33c-0.69,0-1.32-0.11-1.9-0.33c-0.57-0.22-1.05-0.54-1.45-0.96c-0.4-0.42-0.71-0.92-0.93-1.51
		c-0.22-0.59-0.33-1.26-0.33-1.99c0-0.73,0.11-1.39,0.33-1.98c0.22-0.59,0.53-1.09,0.93-1.5c0.4-0.41,0.89-0.72,1.45-0.95
		C107.26,156.35,107.89,156.23,108.58,156.23z M108.58,164.08c0.77,0,1.34-0.26,1.72-0.78c0.37-0.52,0.55-1.28,0.55-2.28
		c0-1-0.19-1.76-0.55-2.29c-0.37-0.53-0.94-0.79-1.72-0.79c-0.79,0-1.37,0.26-1.74,0.79c-0.38,0.53-0.56,1.29-0.56,2.29
		c0,0.99,0.19,1.75,0.56,2.28C107.21,163.82,107.8,164.08,108.58,164.08z"/>
	<path class="st3" d="M121.52,158.34c-0.07,0.08-0.13,0.15-0.19,0.2c-0.07,0.05-0.16,0.07-0.28,0.07c-0.12,0-0.22-0.03-0.34-0.11
		c-0.11-0.07-0.24-0.15-0.39-0.23c-0.15-0.09-0.33-0.17-0.54-0.24c-0.21-0.07-0.47-0.1-0.77-0.1c-0.39,0-0.73,0.07-1.03,0.22
		c-0.3,0.14-0.54,0.34-0.74,0.61c-0.2,0.27-0.34,0.59-0.44,0.96c-0.1,0.38-0.15,0.8-0.15,1.28c0,0.49,0.05,0.93,0.16,1.32
		c0.11,0.38,0.26,0.71,0.46,0.97c0.2,0.26,0.44,0.46,0.72,0.6c0.28,0.13,0.6,0.2,0.96,0.2c0.36,0,0.65-0.04,0.87-0.13
		c0.22-0.09,0.41-0.18,0.55-0.29c0.15-0.1,0.28-0.2,0.4-0.29c0.11-0.09,0.24-0.13,0.38-0.13c0.18,0,0.32,0.07,0.41,0.21l0.64,0.81
		c-0.25,0.29-0.52,0.53-0.81,0.73c-0.29,0.2-0.59,0.35-0.9,0.47c-0.31,0.12-0.63,0.2-0.96,0.25c-0.33,0.05-0.66,0.07-0.98,0.07
		c-0.57,0-1.11-0.11-1.62-0.32c-0.51-0.22-0.95-0.53-1.33-0.94c-0.38-0.41-0.68-0.91-0.9-1.51c-0.22-0.6-0.33-1.27-0.33-2.03
		c0-0.68,0.1-1.31,0.29-1.9c0.2-0.58,0.48-1.08,0.86-1.51c0.38-0.43,0.85-0.76,1.41-1c0.56-0.24,1.21-0.36,1.94-0.36
		c0.69,0,1.3,0.11,1.82,0.33c0.52,0.23,0.99,0.55,1.41,0.96L121.52,158.34z"/>
	<path class="st3" d="M126.22,153.67c0,0.19-0.04,0.37-0.12,0.54c-0.08,0.17-0.18,0.32-0.31,0.45c-0.13,0.13-0.28,0.23-0.46,0.3
		c-0.18,0.08-0.36,0.12-0.56,0.12c-0.19,0-0.38-0.04-0.55-0.12c-0.17-0.07-0.32-0.17-0.45-0.3c-0.13-0.12-0.23-0.27-0.3-0.45
		c-0.08-0.17-0.11-0.35-0.11-0.54c0-0.2,0.04-0.39,0.11-0.56c0.08-0.17,0.18-0.32,0.3-0.45c0.13-0.13,0.28-0.23,0.45-0.31
		c0.17-0.07,0.36-0.11,0.55-0.11c0.2,0,0.39,0.04,0.56,0.11c0.18,0.08,0.33,0.18,0.46,0.31c0.13,0.12,0.23,0.28,0.31,0.45
		C126.18,153.28,126.22,153.47,126.22,153.67z M125.91,156.38v9.29h-2.24v-9.29H125.91z"/>
	<path class="st3" d="M132.15,156.23c0.59,0,1.13,0.09,1.62,0.28c0.49,0.19,0.92,0.46,1.28,0.82c0.36,0.36,0.63,0.8,0.84,1.32
		c0.2,0.52,0.3,1.12,0.3,1.79c0,0.34-0.03,0.57-0.11,0.68c-0.07,0.12-0.21,0.18-0.42,0.18h-5.75c0.04,0.48,0.12,0.89,0.25,1.24
		c0.13,0.35,0.31,0.63,0.53,0.86c0.22,0.22,0.48,0.39,0.77,0.51c0.3,0.11,0.63,0.17,0.99,0.17c0.36,0,0.67-0.04,0.94-0.13
		c0.26-0.09,0.49-0.18,0.69-0.28c0.2-0.1,0.37-0.2,0.52-0.28c0.15-0.08,0.29-0.12,0.43-0.12c0.19,0,0.33,0.07,0.42,0.21l0.64,0.81
		c-0.25,0.29-0.53,0.53-0.83,0.73c-0.31,0.2-0.63,0.35-0.97,0.47c-0.34,0.12-0.68,0.2-1.02,0.25c-0.35,0.05-0.68,0.07-1.01,0.07
		c-0.65,0-1.25-0.11-1.8-0.32c-0.55-0.22-1.04-0.53-1.45-0.95c-0.41-0.42-0.73-0.94-0.97-1.56c-0.24-0.62-0.35-1.34-0.35-2.15
		c0-0.64,0.1-1.23,0.31-1.79c0.2-0.56,0.5-1.04,0.88-1.46c0.38-0.41,0.85-0.74,1.4-0.98C130.83,156.36,131.46,156.23,132.15,156.23z
		 M132.2,157.83c-0.65,0-1.16,0.19-1.53,0.56c-0.37,0.36-0.6,0.89-0.71,1.57h4.22c0-0.29-0.04-0.56-0.12-0.82
		c-0.08-0.26-0.2-0.48-0.37-0.67c-0.16-0.19-0.37-0.34-0.62-0.46C132.82,157.89,132.53,157.83,132.2,157.83z"/>
	<path class="st3" d="M140.85,165.81c-0.81,0-1.43-0.23-1.86-0.68c-0.43-0.45-0.65-1.09-0.65-1.89v-5.19h-0.95
		c-0.12,0-0.22-0.04-0.31-0.12c-0.08-0.08-0.12-0.2-0.12-0.35v-0.89l1.49-0.24l0.47-2.54c0.03-0.12,0.09-0.22,0.17-0.28
		c0.08-0.06,0.19-0.1,0.33-0.1h1.16v2.92h2.48v1.59h-2.48v5.03c0,0.29,0.07,0.52,0.21,0.68c0.14,0.16,0.34,0.24,0.58,0.24
		c0.14,0,0.25-0.02,0.35-0.05c0.1-0.03,0.18-0.07,0.25-0.1c0.07-0.04,0.13-0.07,0.18-0.11c0.06-0.03,0.11-0.05,0.17-0.05
		c0.07,0,0.12,0.02,0.16,0.05c0.04,0.03,0.09,0.09,0.13,0.15l0.67,1.09c-0.33,0.27-0.7,0.48-1.12,0.62
		C141.74,165.74,141.3,165.81,140.85,165.81z"/>
	<path class="st3" d="M147.87,168.22c-0.07,0.16-0.15,0.28-0.26,0.36c-0.11,0.08-0.27,0.12-0.48,0.12h-1.67l1.74-3.72l-3.76-8.6
		h1.97c0.17,0,0.31,0.04,0.41,0.12c0.1,0.09,0.17,0.18,0.22,0.29l1.97,4.82c0.12,0.33,0.22,0.66,0.3,0.98
		c0.05-0.17,0.1-0.33,0.16-0.5c0.06-0.16,0.12-0.33,0.19-0.49l1.86-4.81c0.05-0.12,0.13-0.22,0.24-0.3
		c0.11-0.08,0.24-0.12,0.37-0.12h1.79L147.87,168.22z"/>
	<path class="st3" d="M162.09,156.23c0.69,0,1.32,0.11,1.88,0.33c0.57,0.23,1.05,0.54,1.45,0.95c0.4,0.41,0.71,0.91,0.93,1.5
		c0.22,0.59,0.33,1.25,0.33,1.98c0,0.74-0.11,1.4-0.33,1.99c-0.22,0.59-0.53,1.09-0.93,1.51c-0.4,0.42-0.88,0.74-1.45,0.96
		c-0.56,0.22-1.19,0.33-1.88,0.33c-0.69,0-1.32-0.11-1.89-0.33c-0.57-0.22-1.05-0.54-1.45-0.96c-0.4-0.42-0.71-0.92-0.93-1.51
		c-0.22-0.59-0.33-1.26-0.33-1.99c0-0.73,0.11-1.39,0.33-1.98c0.22-0.59,0.53-1.09,0.93-1.5c0.4-0.41,0.88-0.72,1.45-0.95
		C160.77,156.35,161.4,156.23,162.09,156.23z M162.09,164.08c0.77,0,1.35-0.26,1.72-0.78c0.37-0.52,0.56-1.28,0.56-2.28
		c0-1-0.18-1.76-0.56-2.29c-0.37-0.53-0.94-0.79-1.72-0.79c-0.78,0-1.36,0.26-1.74,0.79c-0.38,0.53-0.56,1.29-0.56,2.29
		c0,0.99,0.19,1.75,0.56,2.28C160.73,163.82,161.31,164.08,162.09,164.08z"/>
	<path class="st3" d="M168.81,165.67v-7.61l-0.8-0.13c-0.18-0.04-0.31-0.1-0.42-0.18c-0.1-0.09-0.16-0.22-0.16-0.38v-0.91h1.38
		v-0.69c0-0.53,0.08-1.01,0.24-1.43c0.16-0.42,0.39-0.78,0.69-1.08c0.3-0.3,0.66-0.52,1.09-0.68c0.43-0.15,0.91-0.24,1.45-0.24
		c0.43,0,0.83,0.06,1.2,0.17l-0.05,1.12c-0.01,0.09-0.03,0.15-0.07,0.2c-0.04,0.05-0.1,0.09-0.17,0.12
		c-0.07,0.03-0.15,0.04-0.24,0.06c-0.09,0.01-0.18,0.01-0.29,0.01c-0.26,0-0.5,0.03-0.71,0.08c-0.21,0.06-0.38,0.16-0.53,0.3
		c-0.14,0.14-0.25,0.33-0.33,0.56c-0.08,0.23-0.11,0.52-0.11,0.86v0.62h2.42v1.59h-2.34v7.61H168.81z"/>
	<path class="st3" d="M177.75,152.58h2.04c0.21,0,0.39,0.05,0.53,0.15c0.14,0.1,0.24,0.23,0.29,0.4l2.23,7.83
		c0.05,0.19,0.09,0.4,0.14,0.63c0.04,0.22,0.09,0.47,0.14,0.72c0.05-0.25,0.1-0.49,0.16-0.72c0.06-0.23,0.12-0.44,0.19-0.63
		l2.57-7.83c0.05-0.14,0.14-0.27,0.29-0.38c0.14-0.12,0.32-0.17,0.52-0.17h0.72c0.21,0,0.38,0.05,0.51,0.15
		c0.13,0.11,0.23,0.24,0.3,0.4l2.56,7.83c0.13,0.38,0.24,0.81,0.35,1.29c0.08-0.47,0.16-0.91,0.26-1.29l2.23-7.83
		c0.04-0.15,0.12-0.28,0.27-0.39c0.15-0.11,0.33-0.17,0.53-0.17h1.91l-4.07,13.09h-2.2l-2.86-8.94c-0.04-0.12-0.08-0.24-0.12-0.37
		c-0.03-0.13-0.07-0.27-0.11-0.42c-0.03,0.15-0.07,0.29-0.1,0.42c-0.04,0.13-0.08,0.25-0.11,0.37l-2.89,8.94h-2.21L177.75,152.58z"
		/>
	<path class="st3" d="M200.74,156.23c0.69,0,1.32,0.11,1.88,0.33c0.56,0.23,1.05,0.54,1.45,0.95c0.4,0.41,0.71,0.91,0.93,1.5
		c0.21,0.59,0.32,1.25,0.32,1.98c0,0.74-0.11,1.4-0.32,1.99c-0.22,0.59-0.53,1.09-0.93,1.51c-0.4,0.42-0.89,0.74-1.45,0.96
		c-0.56,0.22-1.19,0.33-1.88,0.33c-0.7,0-1.32-0.11-1.89-0.33c-0.57-0.22-1.05-0.54-1.45-0.96c-0.4-0.42-0.72-0.92-0.93-1.51
		c-0.22-0.59-0.33-1.26-0.33-1.99c0-0.73,0.11-1.39,0.33-1.98c0.22-0.59,0.53-1.09,0.93-1.5c0.4-0.41,0.88-0.72,1.45-0.95
		C199.41,156.35,200.04,156.23,200.74,156.23z M200.74,164.08c0.77,0,1.34-0.26,1.71-0.78c0.37-0.52,0.56-1.28,0.56-2.28
		c0-1-0.19-1.76-0.56-2.29c-0.37-0.53-0.94-0.79-1.71-0.79c-0.79,0-1.37,0.26-1.74,0.79c-0.37,0.53-0.56,1.29-0.56,2.29
		c0,0.99,0.19,1.75,0.56,2.28C199.37,163.82,199.95,164.08,200.74,164.08z"/>
	<path class="st3" d="M207.03,165.67v-9.29h1.37c0.29,0,0.48,0.13,0.57,0.4l0.15,0.69c0.16-0.18,0.33-0.35,0.51-0.5
		c0.18-0.15,0.37-0.28,0.57-0.39c0.2-0.11,0.42-0.19,0.65-0.26c0.23-0.06,0.49-0.09,0.76-0.09c0.59,0,1.07,0.16,1.45,0.47
		c0.38,0.32,0.66,0.74,0.84,1.26c0.14-0.31,0.33-0.57,0.54-0.79c0.22-0.22,0.45-0.4,0.71-0.54c0.26-0.14,0.54-0.24,0.83-0.31
		c0.3-0.07,0.59-0.1,0.89-0.1c0.51,0,0.96,0.08,1.36,0.24c0.4,0.16,0.73,0.38,1.01,0.69c0.27,0.3,0.48,0.67,0.62,1.1
		c0.14,0.44,0.21,0.94,0.21,1.5v5.91h-2.24v-5.91c0-0.59-0.13-1.04-0.38-1.34c-0.26-0.29-0.64-0.45-1.14-0.45
		c-0.23,0-0.44,0.04-0.64,0.11c-0.2,0.08-0.37,0.19-0.52,0.34c-0.15,0.15-0.26,0.33-0.35,0.55c-0.09,0.22-0.13,0.48-0.13,0.77v5.91
		h-2.25v-5.91c0-0.62-0.12-1.07-0.38-1.36c-0.25-0.28-0.61-0.43-1.1-0.43c-0.33,0-0.63,0.08-0.91,0.24
		c-0.28,0.16-0.54,0.38-0.78,0.66v6.8H207.03z"/>
	<path class="st3" d="M226.14,156.23c0.59,0,1.12,0.09,1.62,0.28c0.49,0.19,0.92,0.46,1.28,0.82c0.36,0.36,0.63,0.8,0.84,1.32
		c0.2,0.52,0.3,1.12,0.3,1.79c0,0.34-0.04,0.57-0.11,0.68c-0.07,0.12-0.21,0.18-0.41,0.18h-5.75c0.03,0.48,0.12,0.89,0.25,1.24
		c0.13,0.35,0.31,0.63,0.53,0.86c0.22,0.22,0.47,0.39,0.77,0.51c0.3,0.11,0.63,0.17,0.99,0.17c0.36,0,0.67-0.04,0.93-0.13
		c0.27-0.09,0.49-0.18,0.69-0.28c0.2-0.1,0.37-0.2,0.51-0.28c0.15-0.08,0.29-0.12,0.43-0.12c0.18,0,0.33,0.07,0.42,0.21l0.64,0.81
		c-0.25,0.29-0.52,0.53-0.83,0.73c-0.31,0.2-0.63,0.35-0.96,0.47c-0.34,0.12-0.68,0.2-1.02,0.25c-0.35,0.05-0.68,0.07-1.01,0.07
		c-0.64,0-1.25-0.11-1.8-0.32c-0.55-0.22-1.03-0.53-1.44-0.95c-0.41-0.42-0.74-0.94-0.97-1.56c-0.23-0.62-0.35-1.34-0.35-2.15
		c0-0.64,0.11-1.23,0.31-1.79c0.21-0.56,0.5-1.04,0.89-1.46c0.38-0.41,0.85-0.74,1.4-0.98
		C224.83,156.36,225.45,156.23,226.14,156.23z M226.19,157.83c-0.65,0-1.16,0.19-1.53,0.56c-0.37,0.36-0.6,0.89-0.71,1.57h4.22
		c0-0.29-0.04-0.56-0.12-0.82c-0.08-0.26-0.2-0.48-0.37-0.67c-0.16-0.19-0.37-0.34-0.62-0.46
		C226.81,157.89,226.52,157.83,226.19,157.83z"/>
	<path class="st3" d="M231.86,165.67v-9.29h1.37c0.29,0,0.48,0.13,0.57,0.4l0.15,0.73c0.19-0.19,0.38-0.37,0.59-0.53
		c0.21-0.15,0.43-0.29,0.66-0.41c0.23-0.11,0.48-0.2,0.75-0.26c0.27-0.06,0.55-0.09,0.87-0.09c0.51,0,0.96,0.09,1.35,0.26
		c0.39,0.17,0.72,0.41,0.98,0.72c0.26,0.31,0.46,0.68,0.6,1.11c0.14,0.43,0.2,0.9,0.2,1.43v5.91h-2.24v-5.91
		c0-0.57-0.13-1.01-0.39-1.32c-0.26-0.31-0.66-0.47-1.19-0.47c-0.39,0-0.75,0.09-1.09,0.26c-0.33,0.18-0.66,0.41-0.96,0.72v6.72
		H231.86z"/>
	<path class="st3" d="M255.07,152.58v1.94h-5.81v3.63h4.58v1.87h-4.58v3.7h5.81v1.95h-8.26v-13.09H255.07z"/>
	<path class="st3" d="M256.68,165.67v-9.29h1.37c0.29,0,0.48,0.13,0.57,0.4l0.15,0.73c0.19-0.19,0.39-0.37,0.59-0.53
		c0.21-0.15,0.43-0.29,0.66-0.41c0.23-0.11,0.48-0.2,0.75-0.26c0.27-0.06,0.56-0.09,0.87-0.09c0.51,0,0.96,0.09,1.35,0.26
		c0.39,0.17,0.72,0.41,0.98,0.72c0.26,0.31,0.46,0.68,0.6,1.11c0.14,0.43,0.2,0.9,0.2,1.43v5.91h-2.23v-5.91
		c0-0.57-0.13-1.01-0.39-1.32c-0.26-0.31-0.65-0.47-1.19-0.47c-0.39,0-0.75,0.09-1.09,0.26c-0.34,0.18-0.66,0.41-0.96,0.72v6.72
		H256.68z"/>
	<path class="st3" d="M270.29,156.21c0.39,0,0.77,0.04,1.12,0.12c0.35,0.08,0.67,0.2,0.96,0.36h2.67v0.83
		c0,0.26-0.16,0.43-0.48,0.48l-0.83,0.16c0.06,0.16,0.11,0.32,0.14,0.5c0.03,0.18,0.05,0.36,0.05,0.55c0,0.46-0.09,0.87-0.28,1.24
		c-0.18,0.37-0.44,0.69-0.76,0.95c-0.33,0.26-0.71,0.46-1.15,0.6c-0.45,0.14-0.92,0.21-1.43,0.21c-0.35,0-0.69-0.03-1.02-0.1
		c-0.29,0.18-0.43,0.37-0.43,0.59c0,0.18,0.09,0.32,0.26,0.41c0.17,0.09,0.4,0.15,0.68,0.19c0.28,0.04,0.61,0.06,0.97,0.07
		c0.36,0.01,0.74,0.03,1.12,0.06c0.38,0.03,0.75,0.08,1.11,0.16c0.36,0.08,0.68,0.19,0.97,0.36c0.28,0.17,0.52,0.39,0.68,0.66
		c0.17,0.28,0.26,0.64,0.26,1.08c0,0.41-0.1,0.81-0.3,1.2c-0.2,0.39-0.49,0.73-0.88,1.03c-0.38,0.3-0.85,0.54-1.41,0.73
		c-0.56,0.18-1.2,0.28-1.91,0.28c-0.7,0-1.31-0.07-1.83-0.2c-0.52-0.13-0.95-0.32-1.3-0.54c-0.34-0.23-0.6-0.48-0.77-0.78
		c-0.17-0.3-0.25-0.61-0.25-0.92c0-0.43,0.13-0.8,0.39-1.09c0.26-0.3,0.62-0.53,1.07-0.71c-0.24-0.13-0.44-0.3-0.58-0.51
		c-0.14-0.21-0.22-0.49-0.22-0.83c0-0.14,0.02-0.28,0.07-0.43c0.05-0.15,0.12-0.29,0.22-0.44c0.1-0.14,0.22-0.28,0.38-0.41
		c0.16-0.13,0.33-0.25,0.54-0.35c-0.47-0.25-0.84-0.59-1.11-1.02c-0.27-0.42-0.4-0.92-0.4-1.48c0-0.46,0.09-0.87,0.27-1.24
		c0.19-0.37,0.44-0.69,0.77-0.95c0.33-0.26,0.72-0.46,1.16-0.6C269.27,156.29,269.76,156.21,270.29,156.21z M272.81,166.08
		c0-0.18-0.05-0.33-0.16-0.44c-0.11-0.11-0.26-0.2-0.44-0.27c-0.18-0.06-0.41-0.11-0.66-0.14c-0.25-0.03-0.52-0.05-0.8-0.06
		c-0.28-0.02-0.57-0.03-0.87-0.04c-0.3-0.01-0.59-0.04-0.87-0.07c-0.25,0.14-0.45,0.3-0.6,0.49c-0.15,0.19-0.23,0.41-0.23,0.65
		c0,0.16,0.04,0.31,0.12,0.46c0.08,0.14,0.21,0.27,0.39,0.37c0.18,0.1,0.41,0.18,0.69,0.24c0.29,0.06,0.63,0.09,1.04,0.09
		c0.41,0,0.77-0.03,1.08-0.1c0.3-0.07,0.55-0.15,0.75-0.26c0.2-0.11,0.34-0.24,0.43-0.4C272.77,166.43,272.81,166.26,272.81,166.08z
		 M270.29,160.79c0.28,0,0.52-0.04,0.72-0.11c0.21-0.08,0.38-0.18,0.51-0.31c0.14-0.13,0.24-0.29,0.31-0.48
		c0.07-0.19,0.11-0.39,0.11-0.61c0-0.46-0.14-0.82-0.41-1.09c-0.27-0.27-0.68-0.41-1.23-0.41c-0.55,0-0.96,0.13-1.24,0.41
		c-0.27,0.27-0.41,0.63-0.41,1.09c0,0.22,0.04,0.42,0.11,0.61c0.07,0.19,0.17,0.35,0.31,0.49c0.14,0.13,0.31,0.24,0.52,0.32
		C269.78,160.76,270.02,160.79,270.29,160.79z"/>
	<path class="st3" d="M279.1,153.67c0,0.19-0.04,0.37-0.12,0.54c-0.08,0.17-0.18,0.32-0.31,0.45c-0.13,0.13-0.29,0.23-0.47,0.3
		c-0.18,0.08-0.37,0.12-0.57,0.12c-0.2,0-0.38-0.04-0.55-0.12c-0.17-0.07-0.32-0.17-0.45-0.3c-0.13-0.12-0.23-0.27-0.3-0.45
		c-0.07-0.17-0.11-0.35-0.11-0.54c0-0.2,0.04-0.39,0.11-0.56c0.07-0.17,0.18-0.32,0.3-0.45c0.13-0.13,0.28-0.23,0.45-0.31
		c0.17-0.07,0.35-0.11,0.55-0.11c0.2,0,0.39,0.04,0.57,0.11c0.18,0.08,0.34,0.18,0.47,0.31c0.13,0.12,0.23,0.28,0.31,0.45
		C279.07,153.28,279.1,153.47,279.1,153.67z M278.8,156.38v9.29h-2.27v-9.29H278.8z"/>
	<path class="st3" d="M281.08,165.67v-9.29h1.37c0.29,0,0.48,0.13,0.57,0.4l0.15,0.73c0.19-0.19,0.38-0.37,0.59-0.53
		c0.21-0.15,0.43-0.29,0.66-0.41c0.23-0.11,0.48-0.2,0.74-0.26c0.27-0.06,0.56-0.09,0.87-0.09c0.51,0,0.96,0.09,1.35,0.26
		c0.39,0.17,0.72,0.41,0.99,0.72c0.26,0.31,0.46,0.68,0.59,1.11c0.14,0.43,0.2,0.9,0.2,1.43v5.91h-2.24v-5.91
		c0-0.57-0.13-1.01-0.39-1.32c-0.26-0.31-0.65-0.47-1.19-0.47c-0.39,0-0.75,0.09-1.08,0.26c-0.34,0.18-0.66,0.41-0.96,0.72v6.72
		H281.08z"/>
	<path class="st3" d="M295.24,156.23c0.58,0,1.12,0.09,1.62,0.28c0.5,0.19,0.92,0.46,1.28,0.82c0.35,0.36,0.64,0.8,0.84,1.32
		c0.2,0.52,0.3,1.12,0.3,1.79c0,0.34-0.04,0.57-0.11,0.68c-0.07,0.12-0.21,0.18-0.42,0.18h-5.75c0.04,0.48,0.12,0.89,0.25,1.24
		c0.13,0.35,0.31,0.63,0.53,0.86c0.22,0.22,0.47,0.39,0.77,0.51c0.3,0.11,0.63,0.17,0.99,0.17c0.36,0,0.67-0.04,0.94-0.13
		c0.26-0.09,0.49-0.18,0.69-0.28c0.19-0.1,0.37-0.2,0.51-0.28c0.15-0.08,0.29-0.12,0.43-0.12c0.19,0,0.33,0.07,0.42,0.21l0.64,0.81
		c-0.25,0.29-0.53,0.53-0.83,0.73c-0.31,0.2-0.63,0.35-0.96,0.47c-0.34,0.12-0.68,0.2-1.02,0.25c-0.35,0.05-0.69,0.07-1.01,0.07
		c-0.64,0-1.25-0.11-1.8-0.32c-0.56-0.22-1.04-0.53-1.45-0.95c-0.41-0.42-0.73-0.94-0.96-1.56c-0.24-0.62-0.36-1.34-0.36-2.15
		c0-0.64,0.1-1.23,0.31-1.79c0.21-0.56,0.5-1.04,0.88-1.46c0.38-0.41,0.85-0.74,1.4-0.98C293.93,156.36,294.55,156.23,295.24,156.23
		z M295.29,157.83c-0.65,0-1.16,0.19-1.53,0.56c-0.37,0.36-0.6,0.89-0.7,1.57h4.22c0-0.29-0.04-0.56-0.12-0.82
		c-0.08-0.26-0.2-0.48-0.37-0.67c-0.16-0.19-0.37-0.34-0.62-0.46C295.91,157.89,295.62,157.83,295.29,157.83z"/>
	<path class="st3" d="M304.91,156.23c0.59,0,1.13,0.09,1.62,0.28c0.49,0.19,0.92,0.46,1.28,0.82c0.35,0.36,0.63,0.8,0.84,1.32
		c0.2,0.52,0.3,1.12,0.3,1.79c0,0.34-0.03,0.57-0.11,0.68c-0.07,0.12-0.21,0.18-0.41,0.18h-5.75c0.04,0.48,0.12,0.89,0.25,1.24
		c0.13,0.35,0.31,0.63,0.53,0.86c0.22,0.22,0.47,0.39,0.77,0.51c0.3,0.11,0.63,0.17,0.99,0.17c0.36,0,0.67-0.04,0.94-0.13
		c0.27-0.09,0.49-0.18,0.69-0.28c0.2-0.1,0.37-0.2,0.51-0.28c0.15-0.08,0.29-0.12,0.43-0.12c0.19,0,0.33,0.07,0.42,0.21l0.64,0.81
		c-0.25,0.29-0.53,0.53-0.83,0.73c-0.31,0.2-0.63,0.35-0.96,0.47c-0.33,0.12-0.67,0.2-1.02,0.25c-0.35,0.05-0.69,0.07-1.01,0.07
		c-0.65,0-1.25-0.11-1.8-0.32c-0.55-0.22-1.04-0.53-1.45-0.95c-0.41-0.42-0.74-0.94-0.97-1.56c-0.23-0.62-0.35-1.34-0.35-2.15
		c0-0.64,0.1-1.23,0.31-1.79c0.2-0.56,0.5-1.04,0.88-1.46c0.39-0.41,0.85-0.74,1.4-0.98C303.6,156.36,304.22,156.23,304.91,156.23z
		 M304.96,157.83c-0.65,0-1.16,0.19-1.53,0.56c-0.37,0.36-0.6,0.89-0.71,1.57h4.22c0-0.29-0.04-0.56-0.12-0.82
		c-0.08-0.26-0.2-0.48-0.37-0.67c-0.16-0.19-0.37-0.34-0.62-0.46C305.58,157.89,305.29,157.83,304.96,157.83z"/>
	<path class="st3" d="M310.62,165.67v-9.29h1.31c0.23,0,0.39,0.04,0.48,0.12c0.09,0.08,0.15,0.23,0.18,0.44l0.12,1.05
		c0.3-0.56,0.64-0.99,1.05-1.31c0.4-0.32,0.87-0.47,1.41-0.47c0.43,0,0.77,0.09,1.03,0.28l-0.14,1.68
		c-0.03,0.11-0.08,0.19-0.13,0.23c-0.06,0.04-0.14,0.07-0.23,0.07c-0.09,0-0.22-0.01-0.41-0.04c-0.18-0.04-0.35-0.05-0.52-0.05
		c-0.25,0-0.47,0.04-0.66,0.11c-0.2,0.07-0.37,0.18-0.52,0.31c-0.15,0.14-0.29,0.3-0.4,0.5c-0.12,0.19-0.23,0.41-0.33,0.66v5.72
		H310.62z"/>
	<path class="st3" d="M323.04,158.19c-0.06,0.1-0.12,0.16-0.19,0.2c-0.07,0.04-0.15,0.06-0.25,0.06c-0.11,0-0.22-0.03-0.35-0.09
		c-0.12-0.06-0.27-0.13-0.43-0.2c-0.16-0.07-0.35-0.14-0.56-0.2c-0.21-0.06-0.45-0.09-0.74-0.09c-0.44,0-0.79,0.09-1.04,0.28
		c-0.25,0.19-0.38,0.43-0.38,0.73c0,0.2,0.07,0.37,0.19,0.5c0.13,0.14,0.3,0.26,0.52,0.36c0.21,0.1,0.46,0.2,0.73,0.28
		c0.27,0.08,0.55,0.17,0.83,0.27c0.28,0.09,0.55,0.2,0.83,0.33c0.27,0.12,0.52,0.28,0.73,0.47c0.21,0.19,0.39,0.42,0.51,0.68
		c0.13,0.27,0.19,0.58,0.19,0.96c0,0.44-0.08,0.86-0.24,1.23c-0.16,0.38-0.4,0.7-0.71,0.98c-0.31,0.27-0.7,0.49-1.17,0.64
		c-0.46,0.15-0.99,0.23-1.6,0.23c-0.32,0-0.63-0.03-0.94-0.09c-0.3-0.06-0.6-0.14-0.88-0.23c-0.28-0.11-0.54-0.23-0.78-0.36
		c-0.24-0.14-0.45-0.29-0.63-0.45l0.52-0.85c0.07-0.1,0.15-0.18,0.24-0.24c0.09-0.05,0.2-0.08,0.34-0.08c0.14,0,0.27,0.04,0.4,0.12
		c0.12,0.08,0.27,0.16,0.43,0.25c0.16,0.09,0.35,0.18,0.57,0.25c0.22,0.08,0.5,0.12,0.84,0.12c0.27,0,0.49-0.03,0.68-0.09
		c0.19-0.07,0.35-0.15,0.47-0.25c0.12-0.1,0.22-0.22,0.27-0.36c0.06-0.13,0.09-0.28,0.09-0.42c0-0.22-0.06-0.39-0.19-0.53
		c-0.13-0.14-0.3-0.26-0.52-0.36c-0.21-0.1-0.46-0.19-0.73-0.27c-0.28-0.08-0.56-0.17-0.84-0.27c-0.29-0.1-0.57-0.21-0.84-0.34
		c-0.27-0.13-0.52-0.29-0.73-0.49c-0.21-0.2-0.38-0.44-0.51-0.73c-0.13-0.29-0.2-0.64-0.2-1.05c0-0.38,0.07-0.74,0.23-1.09
		c0.15-0.34,0.37-0.64,0.66-0.9c0.3-0.26,0.66-0.46,1.1-0.62c0.44-0.15,0.94-0.23,1.52-0.23c0.64,0,1.22,0.1,1.75,0.32
		c0.52,0.21,0.96,0.49,1.31,0.83L323.04,158.19z"/>
</g>
<g>
	<path class="st0" d="M324.15,76.24c-0.69,0-1.33-0.12-1.91-0.36c-0.58-0.24-1.09-0.57-1.52-1c-0.43-0.43-0.76-0.93-1-1.51
		c-0.24-0.58-0.35-1.22-0.35-1.9c0-0.69,0.12-1.33,0.36-1.91s0.57-1.09,1-1.51c0.43-0.43,0.94-0.76,1.52-1
		c0.58-0.24,1.22-0.36,1.9-0.36c0.66,0,1.29,0.12,1.86,0.36c0.58,0.24,1.08,0.57,1.52,1c0.44,0.43,0.78,0.93,1.02,1.51
		c0.25,0.58,0.37,1.21,0.37,1.9s-0.12,1.32-0.36,1.9c-0.24,0.58-0.57,1.09-1,1.51c-0.43,0.43-0.94,0.76-1.52,1
		C325.47,76.12,324.83,76.24,324.15,76.24z M324.15,75.59c0.56,0,1.09-0.1,1.58-0.3c0.49-0.2,0.93-0.49,1.3-0.86
		s0.67-0.81,0.88-1.31c0.21-0.5,0.32-1.05,0.32-1.65c0-0.57-0.1-1.1-0.3-1.59s-0.48-0.93-0.85-1.31c-0.36-0.38-0.79-0.68-1.29-0.89
		c-0.5-0.21-1.04-0.32-1.63-0.32s-1.14,0.1-1.63,0.3c-0.5,0.2-0.93,0.49-1.29,0.86c-0.37,0.37-0.65,0.81-0.85,1.31
		c-0.2,0.5-0.3,1.05-0.3,1.65c0,0.57,0.1,1.1,0.3,1.6s0.48,0.94,0.85,1.31c0.37,0.38,0.8,0.67,1.29,0.89
		C323,75.49,323.55,75.59,324.15,75.59z M322.39,74.31v-5.67h1.66c0.69,0,1.2,0.14,1.53,0.42s0.5,0.7,0.5,1.25
		c0,0.41-0.11,0.74-0.31,0.97c-0.21,0.24-0.45,0.41-0.72,0.52l1.5,2.51h-1.04l-1.31-2.26h-0.88v2.26H322.39z M323.31,71.3h0.71
		c0.35,0,0.63-0.09,0.83-0.26c0.2-0.17,0.3-0.41,0.3-0.7c0-0.33-0.09-0.56-0.28-0.71c-0.19-0.14-0.47-0.22-0.86-0.22h-0.69V71.3z"/>
</g>
</svg>
